# xmcd CD database file
#
# Track frame offsets:
#	150
#	15585
#	31080
#	44067
#	55642
#	70677
#	84862
#	96172
#	103865
#	115337
#	131125
#	142605
#	154505
#	166382
#	180267
#
# Disc length: 2587 seconds
#
# Revision: 0
# Processed by: cddbd v1.4PL0 Copyright (c) Steve Scherf et al.
# Submitted via: CDex 1.50Beta7
#
DISCID=b30a190f
DTITLE=Glenn Miller - Volume 1
DYEAR=1900
DGENRE=Blues
TTITLE0=CHATTANOOGA CHOO CHOO
TTITLE1=SUNRISE SERENADE
TTITLE2=IN THE MOOD
TTITLE3=RAINBOW RHAPSODY
TTITLE4=PERFIDIA
TTITLE5=MY LOVE FOR YOU
TTITLE6=LOVER
TTITLE7=LONDONDERRY AIR
TTITLE8=HALLELUJAH
TTITLE9=FALLING LEAVES
TTITLE10=THE WOODPECKERS' SONG
TTITLE11=CARIBBEAN CLIPPER
TTITLE12=BLUE CHAMPAGNE
TTITLE13=AT LAST
TTITLE14=ADIOS
EXTD=
EXTT0=
EXTT1=
EXTT2=
EXTT3=
EXTT4=
EXTT5=
EXTT6=
EXTT7=
EXTT8=
EXTT9=
EXTT10=
EXTT11=
EXTT12=
EXTT13=
EXTT14=
PLAYORDER=
